<svg xmlns="http://www.w3.org/2000/svg" viewBox="0 0 100 100" xml:space="preserve"><g><path d="M99.394,42.19c-0.103-0.688-0.615-1.234-1.286-1.399l-5.208-1.256c-3.023-0.723-5.231-2.405-6.191-4.74   c-0.975-2.331-0.607-5.083,1.024-7.738l2.791-4.561c0.357-0.585,0.324-1.339-0.082-1.894c-3.086-4.247-6.799-7.96-11.047-11.045   c-0.553-0.405-1.305-0.439-1.893-0.083l-4.559,2.793c-1.664,1.016-3.399,1.546-5.042,1.546c-3.587,0-6.442-2.571-7.447-6.713   l-1.243-5.21c-0.168-0.667-0.723-1.18-1.402-1.283c-5.146-0.808-10.47-0.808-15.616,0c-0.68,0.103-1.233,0.616-1.391,1.283   l-1.256,5.21c-1.002,4.142-3.859,6.713-7.447,6.713c-1.641,0-3.378-0.53-5.04-1.546l-4.561-2.793   c-0.585-0.356-1.338-0.322-1.893,0.083c-4.246,3.085-7.958,6.799-11.044,11.045c-0.409,0.555-0.439,1.309-0.084,1.894l2.794,4.561   c1.631,2.654,1.987,5.407,1.023,7.738c-0.962,2.335-3.16,4.017-6.19,4.74l-5.211,1.256c-0.668,0.165-1.181,0.711-1.286,1.399   C0.21,44.765,0,47.388,0,49.994c0,2.614,0.21,5.24,0.607,7.811c0.104,0.681,0.617,1.234,1.286,1.392l5.211,1.257   c3.03,0.729,5.228,2.415,6.19,4.747c0.964,2.335,0.607,5.083-1.023,7.742l-2.794,4.559c-0.355,0.586-0.324,1.338,0.084,1.892   c3.085,4.246,6.798,7.961,11.044,11.045c0.555,0.41,1.308,0.439,1.893,0.073l4.561-2.782c1.662-1.014,3.399-1.558,5.04-1.558   c3.588,0,6.445,2.584,7.447,6.725l1.256,5.209c0.158,0.671,0.711,1.173,1.391,1.288c2.573,0.397,5.199,0.606,7.813,0.606   c2.606,0,5.23-0.209,7.802-0.606c0.68-0.115,1.234-0.617,1.402-1.288l1.243-5.209c1.005-4.141,3.86-6.725,7.447-6.725   c1.643,0,3.378,0.544,5.042,1.558l4.559,2.782c0.588,0.366,1.34,0.337,1.893-0.073c4.248-3.084,7.961-6.799,11.047-11.045   c0.406-0.554,0.439-1.306,0.082-1.892l-2.791-4.559c-1.632-2.659-1.999-5.407-1.024-7.742c0.96-2.332,3.168-4.018,6.191-4.747   l5.208-1.257c0.671-0.157,1.184-0.711,1.286-1.392c0.397-2.571,0.606-5.197,0.606-7.811C100,47.388,99.791,44.765,99.394,42.19z    M96.182,56.154l-4.077,0.981c-4.121,0.993-7.166,3.391-8.558,6.756c-1.391,3.369-0.94,7.209,1.266,10.827l2.198,3.577   c-2.511,3.273-5.438,6.192-8.714,8.702l-3.577-2.186c-2.194-1.339-4.548-2.051-6.818-2.051c-5.167,0-9.394,3.66-10.764,9.339   l-0.982,4.08c-4.067,0.533-8.241,0.533-12.31,0l-0.983-4.08c-1.372-5.679-5.597-9.339-10.764-9.339   c-2.268,0-4.622,0.712-6.818,2.051l-3.577,2.186c-3.271-2.51-6.203-5.429-8.703-8.702l2.176-3.577   c2.217-3.618,2.667-7.458,1.275-10.827c-1.398-3.365-4.433-5.763-8.552-6.756l-4.082-0.981c-0.271-2.041-0.397-4.1-0.397-6.161   c0-2.049,0.127-4.12,0.397-6.152l4.082-0.982c4.12-0.994,7.154-3.389,8.552-6.756c1.391-3.367,0.941-7.216-1.275-10.824L13,21.702   c2.5-3.274,5.432-6.203,8.703-8.713l3.577,2.186c2.197,1.35,4.551,2.061,6.818,2.061c5.167,0,9.392-3.67,10.764-9.34l0.983-4.079   c4.069-0.536,8.242-0.536,12.31,0l0.982,4.079c1.37,5.67,5.597,9.34,10.776,9.34c2.258,0,4.611-0.71,6.806-2.061l3.577-2.186   c3.275,2.51,6.203,5.439,8.714,8.713l-2.198,3.577c-2.206,3.608-2.656,7.457-1.266,10.824c1.392,3.367,4.437,5.763,8.558,6.756   l4.077,0.982c0.264,2.032,0.41,4.103,0.41,6.152C96.592,52.055,96.445,54.113,96.182,56.154z"/><path d="M50.006,21.953c-0.952,0-1.717,0.763-1.717,1.707c0,0.94,0.765,1.702,1.717,1.702c13.577,0,24.63,11.058,24.63,24.633   c0,0.94,0.763,1.715,1.705,1.715c0.941,0,1.705-0.775,1.705-1.715C78.047,34.536,65.463,21.953,50.006,21.953z"/><path d="M67.421,67.419c-4.654,4.653-10.834,7.217-17.415,7.217c-6.589,0-12.772-2.563-17.424-7.217   c-9.602-9.602-9.602-25.237,0-34.839c0.668-0.669,0.668-1.747,0-2.416c-0.671-0.669-1.749-0.669-2.418,0   c-10.93,10.941-10.93,28.73,0,39.671c5.305,5.294,12.343,8.209,19.843,8.209c7.488,0,14.529-2.915,19.829-8.209   c0.67-0.668,0.67-1.747,0-2.416C69.168,66.747,68.09,66.747,67.421,67.419z"/><path d="M50.006,64.876c8.2,0,14.874-6.674,14.874-14.882c0-8.201-6.674-14.873-14.874-14.873c-8.211,0-14.882,6.672-14.882,14.873   C35.125,58.202,41.795,64.876,50.006,64.876z M50.006,38.529c6.316,0,11.463,5.148,11.463,11.465   c0,6.329-5.147,11.464-11.463,11.464c-6.33,0-11.463-5.136-11.463-11.464C38.543,43.677,43.677,38.529,50.006,38.529z"/></g></svg>