<svg xmlns="http://www.w3.org/2000/svg" viewBox="-5.0 -10.0 110.0 110.0">
 <path d="m60.738 8.2109c-6.4922 0-12.98 2.2539-18.188 6.7734-0.875 0.76562-2.043 1.9297-2.8047 2.8086-7.6758 8.8477-8.9609 21.605-3.2109 31.812 0.066406 0.10938-0.011718 0.61328-0.039062 0.66797l-23.941 23.941c-1.4297 1.4297-1.4297 3.8086 0 5.2422l11.258 11.258c1.4297 1.4297 3.8047 1.4297 5.2383 0l2.4883-2.4883c1.4297-1.4297 1.4297-3.8047 0-5.2383l-3.9219-3.9219 2.2188-2.2266h0.007812l3.9258 3.9258c1.4297 1.4297 3.8086 1.4297 5.2422 0l2.4883-2.4883c1.4297-1.4297 1.4297-3.8047 0-5.2383l-3.9297-3.9297 8.8828-8.8828c0.054687-0.035156 0.55078-0.10937 0.66406-0.035156 10.203 5.75 22.969 4.457 31.816-3.2188 0.87891-0.76172 2.0391-1.918 2.8047-2.7969 9.0391-10.41 9.0391-25.969 0-36.383-0.76172-0.87891-1.9258-2.043-2.8008-2.8086-5.207-4.5195-11.707-6.7734-18.199-6.7734zm0.003907 3.6875c5.625 0 11.25 1.9648 15.766 5.8867 0.66406 0.57812 1.8516 1.7656 2.4297 2.4297 7.8438 9.0352 7.8438 22.496 0 31.531-0.57812 0.66406-1.7656 1.8555-2.4297 2.4297-7.6719 6.6523-18.723 7.7695-27.57 2.7852-1.6641-0.9375-3.6875-0.77344-5.1094 0.64453l-8.8828 8.8867c-1.4297 1.4297-1.4297 3.8086 0 5.2422l3.9297 3.9258-2.4883 2.4883-3.9258-3.9297c-1.4297-1.4297-3.8125-1.4297-5.2461 0l-2.2188 2.2227c-1.4297 1.4297-1.4297 3.8125 0 5.2461l3.9258 3.9258-2.4883 2.4883-11.262-11.262 23.941-23.949c1.418-1.418 1.5859-3.4453 0.64844-5.1055-4.9883-8.8516-3.8672-19.898 2.7891-27.574 0.57422-0.66406 1.7656-1.8477 2.4297-2.4258 4.5156-3.9219 10.137-5.8867 15.762-5.8867zm0 7.4219c-4.2695 0-8.5391 1.625-11.785 4.8711-6.4922 6.4922-6.4922 17.07 0 23.566 6.4922 6.4922 17.074 6.4922 23.566 0 6.4922-6.4922 6.4922-17.074 0-23.566-3.2422-3.2461-7.5117-4.8711-11.781-4.8711zm0 3.6797c3.3125 0 6.625 1.2695 9.1641 3.8086 5.0781 5.0781 5.0781 13.254 0 18.328-5.0781 5.0781-13.254 5.0781-18.332 0s-5.0781-13.25 0-18.328c2.543-2.5352 5.8555-3.8047 9.168-3.8047z" fill-rule="evenodd"/>
</svg>